<mxfile host="Electron" agent="Mozilla/5.0 (Windows NT 10.0; Win64; x64) AppleWebKit/537.36 (KHTML, like Gecko) draw.io/26.2.2 Chrome/134.0.6998.178 Electron/35.1.2 Safari/537.36" version="26.2.2">
  <diagram id="OXweIwcM642nCzn_Ex3O" name="Page-1">
    <mxGraphModel dx="1428" dy="2041" grid="1" gridSize="10" guides="1" tooltips="1" connect="1" arrows="1" fold="1" page="1" pageScale="1" pageWidth="1600" pageHeight="1200" math="0" shadow="0">
      <root>
        <mxCell id="0" />
        <mxCell id="1" parent="0" />
        <mxCell id="rmjqJcoGJ74MZayaY6CU-1" value="Semi-structured" style="text;html=1;align=center;verticalAlign=middle;resizable=0;points=[];autosize=1;strokeColor=none;fillColor=none;" parent="1" vertex="1">
          <mxGeometry x="30" y="355" width="110" height="30" as="geometry" />
        </mxCell>
        <mxCell id="rmjqJcoGJ74MZayaY6CU-3" value="Structured" style="text;html=1;align=center;verticalAlign=middle;resizable=0;points=[];autosize=1;strokeColor=none;fillColor=none;" parent="1" vertex="1">
          <mxGeometry x="45" y="15" width="80" height="30" as="geometry" />
        </mxCell>
        <mxCell id="rmjqJcoGJ74MZayaY6CU-4" value="Unstructured" style="text;html=1;align=center;verticalAlign=middle;resizable=0;points=[];autosize=1;strokeColor=none;fillColor=none;" parent="1" vertex="1">
          <mxGeometry x="40" y="675" width="90" height="30" as="geometry" />
        </mxCell>
        <mxCell id="rmjqJcoGJ74MZayaY6CU-5" value="" style="shape=image;verticalLabelPosition=bottom;labelBackgroundColor=default;verticalAlign=top;aspect=fixed;imageAspect=0;image=https://digitalis.io/wp-content/uploads/2020/12/Kafka600x340.jpg;" parent="1" vertex="1">
          <mxGeometry x="280" y="640" width="70.58" height="40" as="geometry" />
        </mxCell>
        <mxCell id="rmjqJcoGJ74MZayaY6CU-8" value="" style="shape=image;verticalLabelPosition=bottom;labelBackgroundColor=default;verticalAlign=top;aspect=fixed;imageAspect=0;image=https://upload.wikimedia.org/wikipedia/commons/thumb/c/c3/Python-logo-notext.svg/800px-Python-logo-notext.svg.png;" parent="1" vertex="1">
          <mxGeometry x="297.07" y="450" width="36.45" height="40" as="geometry" />
        </mxCell>
        <mxCell id="rmjqJcoGJ74MZayaY6CU-9" value="" style="endArrow=none;dashed=1;html=1;rounded=0;" parent="1" edge="1">
          <mxGeometry width="50" height="50" relative="1" as="geometry">
            <mxPoint x="200" y="660" as="sourcePoint" />
            <mxPoint x="280" y="659.5" as="targetPoint" />
          </mxGeometry>
        </mxCell>
        <mxCell id="rmjqJcoGJ74MZayaY6CU-10" value="" style="endArrow=none;html=1;rounded=0;entryX=0;entryY=0.5;entryDx=0;entryDy=0;" parent="1" target="rmjqJcoGJ74MZayaY6CU-8" edge="1">
          <mxGeometry width="50" height="50" relative="1" as="geometry">
            <mxPoint x="230" y="470" as="sourcePoint" />
            <mxPoint x="280" y="340" as="targetPoint" />
          </mxGeometry>
        </mxCell>
        <mxCell id="rmjqJcoGJ74MZayaY6CU-11" value="1: Live stock prices" style="rounded=0;whiteSpace=wrap;html=1;fillColor=#d5e8d4;strokeColor=#82b366;" parent="1" vertex="1">
          <mxGeometry x="35" y="45" width="100" height="30" as="geometry" />
        </mxCell>
        <mxCell id="rmjqJcoGJ74MZayaY6CU-12" value="3: country&#39;s financial indicator/&lt;span style=&quot;background-color: transparent; color: light-dark(rgb(0, 0, 0), rgb(255, 255, 255));&quot;&gt;&amp;nbsp;rates&lt;/span&gt;" style="rounded=0;whiteSpace=wrap;html=1;fillColor=#d5e8d4;strokeColor=#82b366;" parent="1" vertex="1">
          <mxGeometry x="35" y="125" width="100" height="60" as="geometry" />
        </mxCell>
        <mxCell id="rmjqJcoGJ74MZayaY6CU-13" value="Historical market data" style="rounded=0;whiteSpace=wrap;html=1;" parent="1" vertex="1">
          <mxGeometry x="35" y="195" width="100" height="30" as="geometry" />
        </mxCell>
        <mxCell id="rmjqJcoGJ74MZayaY6CU-14" value="4: Customer Transaction Data" style="rounded=0;whiteSpace=wrap;html=1;fillColor=#d5e8d4;strokeColor=#82b366;" parent="1" vertex="1">
          <mxGeometry x="35" y="235" width="100" height="30" as="geometry" />
        </mxCell>
        <mxCell id="rmjqJcoGJ74MZayaY6CU-15" value="Loan Applications" style="rounded=0;whiteSpace=wrap;html=1;" parent="1" vertex="1">
          <mxGeometry x="35" y="275" width="100" height="30" as="geometry" />
        </mxCell>
        <mxCell id="rmjqJcoGJ74MZayaY6CU-16" value="User profiles" style="rounded=0;whiteSpace=wrap;html=1;" parent="1" vertex="1">
          <mxGeometry x="35" y="315" width="100" height="30" as="geometry" />
        </mxCell>
        <mxCell id="rmjqJcoGJ74MZayaY6CU-17" value="2: live crypto prices" style="rounded=0;whiteSpace=wrap;html=1;fillColor=#d5e8d4;strokeColor=#82b366;" parent="1" vertex="1">
          <mxGeometry x="35" y="85" width="100" height="30" as="geometry" />
        </mxCell>
        <mxCell id="rmjqJcoGJ74MZayaY6CU-22" value="" style="rounded=1;whiteSpace=wrap;html=1;absoluteArcSize=1;arcSize=14;strokeWidth=2;" parent="1" vertex="1">
          <mxGeometry x="520" y="60" width="180" height="420" as="geometry" />
        </mxCell>
        <mxCell id="rmjqJcoGJ74MZayaY6CU-24" value="Landing Zone" style="text;html=1;align=center;verticalAlign=middle;whiteSpace=wrap;rounded=0;" parent="1" vertex="1">
          <mxGeometry x="560" y="60" width="100" height="30" as="geometry" />
        </mxCell>
        <mxCell id="rmjqJcoGJ74MZayaY6CU-25" value="" style="rounded=1;whiteSpace=wrap;html=1;absoluteArcSize=1;arcSize=14;strokeWidth=2;" parent="1" vertex="1">
          <mxGeometry x="540" y="150" width="140" height="310" as="geometry" />
        </mxCell>
        <mxCell id="rmjqJcoGJ74MZayaY6CU-26" value="" style="shape=partialRectangle;whiteSpace=wrap;html=1;right=0;top=0;bottom=0;fillColor=none;routingCenterX=-0.5;rotation=90;" parent="1" vertex="1">
          <mxGeometry x="601.25" y="8.75" width="15" height="180" as="geometry" />
        </mxCell>
        <mxCell id="rmjqJcoGJ74MZayaY6CU-27" value="" style="shape=image;verticalLabelPosition=bottom;labelBackgroundColor=default;verticalAlign=top;aspect=fixed;imageAspect=0;image=https://www.databricks.com/wp-content/uploads/2019/09/delta-lake-logo.png;" parent="1" vertex="1">
          <mxGeometry x="585.49" y="100" width="49.01" height="40" as="geometry" />
        </mxCell>
        <mxCell id="rmjqJcoGJ74MZayaY6CU-28" value="Social Media posts" style="rounded=0;whiteSpace=wrap;html=1;" parent="1" vertex="1">
          <mxGeometry x="35" y="385" width="100" height="30" as="geometry" />
        </mxCell>
        <mxCell id="rmjqJcoGJ74MZayaY6CU-29" value="Customer Support Chats" style="rounded=0;whiteSpace=wrap;html=1;" parent="1" vertex="1">
          <mxGeometry x="35" y="425" width="100" height="30" as="geometry" />
        </mxCell>
        <mxCell id="rmjqJcoGJ74MZayaY6CU-30" value="AI Assistant Interactions" style="rounded=0;whiteSpace=wrap;html=1;" parent="1" vertex="1">
          <mxGeometry x="35" y="465" width="100" height="30" as="geometry" />
        </mxCell>
        <mxCell id="rmjqJcoGJ74MZayaY6CU-31" value="Customer Email Communication" style="rounded=0;whiteSpace=wrap;html=1;" parent="1" vertex="1">
          <mxGeometry x="35" y="505" width="100" height="30" as="geometry" />
        </mxCell>
        <mxCell id="rmjqJcoGJ74MZayaY6CU-32" value="App-usage-Logs" style="rounded=0;whiteSpace=wrap;html=1;" parent="1" vertex="1">
          <mxGeometry x="35" y="545" width="100" height="30" as="geometry" />
        </mxCell>
        <mxCell id="rmjqJcoGJ74MZayaY6CU-33" value="Error Reports" style="rounded=0;whiteSpace=wrap;html=1;" parent="1" vertex="1">
          <mxGeometry x="35" y="585" width="100" height="30" as="geometry" />
        </mxCell>
        <mxCell id="rmjqJcoGJ74MZayaY6CU-34" value="7: Financial News&amp;nbsp;" style="rounded=0;whiteSpace=wrap;html=1;fillColor=#d5e8d4;strokeColor=#82b366;" parent="1" vertex="1">
          <mxGeometry x="35" y="625" width="100" height="30" as="geometry" />
        </mxCell>
        <mxCell id="rmjqJcoGJ74MZayaY6CU-35" value="8: ID and face image" style="rounded=0;whiteSpace=wrap;html=1;fillColor=#d5e8d4;strokeColor=#82b366;" parent="1" vertex="1">
          <mxGeometry x="35" y="705" width="100" height="30" as="geometry" />
        </mxCell>
        <mxCell id="rmjqJcoGJ74MZayaY6CU-36" value="Authentication video" style="rounded=0;whiteSpace=wrap;html=1;imageWidth=24;" parent="1" vertex="1">
          <mxGeometry x="35" y="745" width="100" height="30" as="geometry" />
        </mxCell>
        <mxCell id="rmjqJcoGJ74MZayaY6CU-37" value="Voice Call Recordings (Support)" style="rounded=0;whiteSpace=wrap;html=1;" parent="1" vertex="1">
          <mxGeometry x="35" y="785" width="100" height="45" as="geometry" />
        </mxCell>
        <mxCell id="rmjqJcoGJ74MZayaY6CU-38" value="" style="rounded=1;whiteSpace=wrap;html=1;absoluteArcSize=1;arcSize=14;strokeWidth=2;" parent="1" vertex="1">
          <mxGeometry x="280" y="181.38" width="180" height="85" as="geometry" />
        </mxCell>
        <mxCell id="rmjqJcoGJ74MZayaY6CU-39" value="" style="shape=partialRectangle;whiteSpace=wrap;html=1;right=0;top=0;bottom=0;fillColor=none;routingCenterX=-0.5;rotation=90;" parent="1" vertex="1">
          <mxGeometry x="362.5" y="121.38" width="15" height="180" as="geometry" />
        </mxCell>
        <mxCell id="rmjqJcoGJ74MZayaY6CU-40" value="Orchestration" style="text;html=1;align=center;verticalAlign=middle;whiteSpace=wrap;rounded=0;" parent="1" vertex="1">
          <mxGeometry x="320" y="176.38" width="100" height="30" as="geometry" />
        </mxCell>
        <mxCell id="rmjqJcoGJ74MZayaY6CU-41" value="" style="shape=image;verticalLabelPosition=bottom;labelBackgroundColor=default;verticalAlign=top;aspect=fixed;imageAspect=0;image=https://upload.wikimedia.org/wikipedia/commons/d/de/AirflowLogo.png;" parent="1" vertex="1">
          <mxGeometry x="331.20000000000005" y="216.38" width="77.59" height="30" as="geometry" />
        </mxCell>
        <mxCell id="rmjqJcoGJ74MZayaY6CU-42" value="" style="verticalLabelPosition=bottom;verticalAlign=top;html=1;shape=mxgraph.basic.patternFillRect;fillStyle=diag;step=5;fillStrokeWidth=0.2;fillStrokeColor=#dddddd;strokeColor=none;fillColor=#000000;fontStyle=1;fontSize=28;" parent="1" vertex="1">
          <mxGeometry x="800" y="640" width="190" height="110" as="geometry" />
        </mxCell>
        <mxCell id="rmjqJcoGJ74MZayaY6CU-43" value="P2" style="text;strokeColor=none;fillColor=none;html=1;fontSize=24;fontStyle=1;verticalAlign=middle;align=center;fontColor=#FFFFFF;" parent="1" vertex="1">
          <mxGeometry x="852.5" y="655" width="85" height="40" as="geometry" />
        </mxCell>
        <mxCell id="rmjqJcoGJ74MZayaY6CU-47" value="9: User document scans (pdf)" style="rounded=0;whiteSpace=wrap;html=1;imageWidth=24;fillColor=#d5e8d4;strokeColor=#82b366;" parent="1" vertex="1">
          <mxGeometry x="35" y="840" width="100" height="45" as="geometry" />
        </mxCell>
        <mxCell id="rmjqJcoGJ74MZayaY6CU-63" value="API Calls" style="text;html=1;align=center;verticalAlign=middle;resizable=0;points=[];autosize=1;strokeColor=none;fillColor=none;" parent="1" vertex="1">
          <mxGeometry x="275" y="360" width="70" height="30" as="geometry" />
        </mxCell>
        <mxCell id="rmjqJcoGJ74MZayaY6CU-65" value="&lt;div&gt;Simulate&lt;/div&gt;Relational&lt;div&gt;Databank&lt;/div&gt;" style="text;html=1;align=center;verticalAlign=middle;resizable=0;points=[];autosize=1;strokeColor=none;fillColor=none;" parent="1" vertex="1">
          <mxGeometry x="270" y="385" width="80" height="60" as="geometry" />
        </mxCell>
        <mxCell id="rmjqJcoGJ74MZayaY6CU-67" value="" style="shape=image;html=1;verticalLabelPosition=bottom;verticalAlign=top;imageAspect=0;image=img/clipart/Gear_128x128.png" parent="1" vertex="1">
          <mxGeometry x="877.5" y="695" width="35" height="45" as="geometry" />
        </mxCell>
        <mxCell id="rmjqJcoGJ74MZayaY6CU-69" value="" style="verticalLabelPosition=bottom;verticalAlign=top;html=1;shape=mxgraph.basic.patternFillRect;fillStyle=diag;step=5;fillStrokeWidth=0.2;fillStrokeColor=#dddddd;strokeColor=none;fillColor=#000000;fontStyle=1;fontSize=28;" parent="1" vertex="1">
          <mxGeometry x="800" y="125" width="190" height="350" as="geometry" />
        </mxCell>
        <mxCell id="rmjqJcoGJ74MZayaY6CU-70" value="P2" style="text;strokeColor=none;fillColor=none;html=1;fontSize=24;fontStyle=1;verticalAlign=middle;align=center;fontColor=#FFFFFF;" parent="1" vertex="1">
          <mxGeometry x="847.5" y="140" width="85" height="40" as="geometry" />
        </mxCell>
        <mxCell id="rmjqJcoGJ74MZayaY6CU-71" value="" style="shape=image;html=1;verticalLabelPosition=bottom;verticalAlign=top;imageAspect=0;image=img/clipart/Gear_128x128.png" parent="1" vertex="1">
          <mxGeometry x="872.5" y="180" width="35" height="45" as="geometry" />
        </mxCell>
        <mxCell id="rmjqJcoGJ74MZayaY6CU-72" value="10: Financial Reports&amp;nbsp;" style="rounded=0;whiteSpace=wrap;html=1;imageWidth=24;fillColor=#d5e8d4;strokeColor=#82b366;" parent="1" vertex="1">
          <mxGeometry x="35" y="895" width="100" height="30" as="geometry" />
        </mxCell>
        <mxCell id="IpHL5kCFcn3_bgYXH1wa-1" value="" style="endArrow=none;dashed=1;html=1;rounded=0;" parent="1" edge="1">
          <mxGeometry width="50" height="50" relative="1" as="geometry">
            <mxPoint x="200" y="60" as="sourcePoint" />
            <mxPoint x="200" y="660" as="targetPoint" />
          </mxGeometry>
        </mxCell>
        <mxCell id="IpHL5kCFcn3_bgYXH1wa-4" value="" style="endArrow=none;dashed=1;html=1;rounded=0;" parent="1" edge="1">
          <mxGeometry width="50" height="50" relative="1" as="geometry">
            <mxPoint x="135" y="59.07000000000005" as="sourcePoint" />
            <mxPoint x="200" y="59" as="targetPoint" />
          </mxGeometry>
        </mxCell>
        <mxCell id="IpHL5kCFcn3_bgYXH1wa-8" value="" style="endArrow=none;dashed=1;html=1;rounded=0;entryX=0.002;entryY=0.17;entryDx=0;entryDy=0;entryPerimeter=0;fillColor=#d80073;strokeColor=#FF9933;" parent="1" target="rmjqJcoGJ74MZayaY6CU-42" edge="1">
          <mxGeometry width="50" height="50" relative="1" as="geometry">
            <mxPoint x="350.58000000000004" y="660.5" as="sourcePoint" />
            <mxPoint x="430.58000000000004" y="660" as="targetPoint" />
          </mxGeometry>
        </mxCell>
        <mxCell id="ihgkQnxNwPSSJBQIqGD--87" value="Warm path (8)" style="edgeLabel;html=1;align=center;verticalAlign=middle;resizable=0;points=[];" parent="IpHL5kCFcn3_bgYXH1wa-8" vertex="1" connectable="0">
          <mxGeometry x="-0.0319" y="3" relative="1" as="geometry">
            <mxPoint x="7" y="-7" as="offset" />
          </mxGeometry>
        </mxCell>
        <mxCell id="IpHL5kCFcn3_bgYXH1wa-9" value="" style="endArrow=none;dashed=1;html=1;rounded=0;fillColor=#d80073;strokeColor=#A50040;entryX=-0.011;entryY=0.7;entryDx=0;entryDy=0;entryPerimeter=0;" parent="1" edge="1" target="rmjqJcoGJ74MZayaY6CU-42">
          <mxGeometry width="50" height="50" relative="1" as="geometry">
            <mxPoint x="370" y="717" as="sourcePoint" />
            <mxPoint x="520" y="717" as="targetPoint" />
          </mxGeometry>
        </mxCell>
        <mxCell id="ihgkQnxNwPSSJBQIqGD--88" value="Hot paths (1, 2, 4, 8, 9)" style="edgeLabel;html=1;align=center;verticalAlign=middle;resizable=0;points=[];" parent="IpHL5kCFcn3_bgYXH1wa-9" vertex="1" connectable="0">
          <mxGeometry x="-0.5991" y="5" relative="1" as="geometry">
            <mxPoint x="119" y="-7" as="offset" />
          </mxGeometry>
        </mxCell>
        <mxCell id="IpHL5kCFcn3_bgYXH1wa-10" value="" style="endArrow=none;dashed=1;html=1;rounded=0;fillColor=#d80073;strokeColor=#A50040;" parent="1" edge="1">
          <mxGeometry width="50" height="50" relative="1" as="geometry">
            <mxPoint x="370" y="660.0300000000001" as="sourcePoint" />
            <mxPoint x="370" y="719.96" as="targetPoint" />
          </mxGeometry>
        </mxCell>
        <mxCell id="IpHL5kCFcn3_bgYXH1wa-11" value="" style="endArrow=none;dashed=1;html=1;rounded=0;exitX=0.5;exitY=0;exitDx=0;exitDy=0;exitPerimeter=0;" parent="1" edge="1" source="rmjqJcoGJ74MZayaY6CU-42">
          <mxGeometry width="50" height="50" relative="1" as="geometry">
            <mxPoint x="370.00000000000006" y="660.75" as="sourcePoint" />
            <mxPoint x="530" y="550" as="targetPoint" />
            <Array as="points">
              <mxPoint x="895" y="550" />
              <mxPoint x="530" y="550" />
            </Array>
          </mxGeometry>
        </mxCell>
        <mxCell id="IpHL5kCFcn3_bgYXH1wa-15" value="" style="endArrow=classic;html=1;rounded=0;exitX=1;exitY=0.5;exitDx=0;exitDy=0;entryX=0;entryY=0.5;entryDx=0;entryDy=0;" parent="1" source="rmjqJcoGJ74MZayaY6CU-8" target="xRqy5EW2AZj9_taGgykV-7" edge="1">
          <mxGeometry width="50" height="50" relative="1" as="geometry">
            <mxPoint x="460" y="440" as="sourcePoint" />
            <mxPoint x="510" y="390" as="targetPoint" />
          </mxGeometry>
        </mxCell>
        <mxCell id="ihgkQnxNwPSSJBQIqGD--90" value="Cold paths" style="edgeLabel;html=1;align=center;verticalAlign=middle;resizable=0;points=[];" parent="IpHL5kCFcn3_bgYXH1wa-15" vertex="1" connectable="0">
          <mxGeometry x="-0.1691" y="3" relative="1" as="geometry">
            <mxPoint y="-7" as="offset" />
          </mxGeometry>
        </mxCell>
        <mxCell id="IpHL5kCFcn3_bgYXH1wa-16" value="" style="endArrow=none;html=1;rounded=0;" parent="1" edge="1">
          <mxGeometry width="50" height="50" relative="1" as="geometry">
            <mxPoint x="230" y="910" as="sourcePoint" />
            <mxPoint x="230" y="150" as="targetPoint" />
          </mxGeometry>
        </mxCell>
        <mxCell id="IpHL5kCFcn3_bgYXH1wa-17" value="" style="endArrow=none;html=1;rounded=0;" parent="1" edge="1">
          <mxGeometry width="50" height="50" relative="1" as="geometry">
            <mxPoint x="135" y="150" as="sourcePoint" />
            <mxPoint x="230" y="150" as="targetPoint" />
          </mxGeometry>
        </mxCell>
        <mxCell id="IpHL5kCFcn3_bgYXH1wa-25" value="" style="endArrow=none;html=1;rounded=0;" parent="1" edge="1">
          <mxGeometry width="50" height="50" relative="1" as="geometry">
            <mxPoint x="135" y="719.5699999999999" as="sourcePoint" />
            <mxPoint x="230" y="719.5699999999999" as="targetPoint" />
          </mxGeometry>
        </mxCell>
        <mxCell id="IpHL5kCFcn3_bgYXH1wa-29" value="" style="endArrow=none;html=1;rounded=0;" parent="1" edge="1">
          <mxGeometry width="50" height="50" relative="1" as="geometry">
            <mxPoint x="135" y="862.07" as="sourcePoint" />
            <mxPoint x="230" y="862.07" as="targetPoint" />
          </mxGeometry>
        </mxCell>
        <mxCell id="IpHL5kCFcn3_bgYXH1wa-30" value="" style="endArrow=none;html=1;rounded=0;" parent="1" edge="1">
          <mxGeometry width="50" height="50" relative="1" as="geometry">
            <mxPoint x="135" y="909.57" as="sourcePoint" />
            <mxPoint x="230" y="909.57" as="targetPoint" />
          </mxGeometry>
        </mxCell>
        <mxCell id="IpHL5kCFcn3_bgYXH1wa-33" value="" style="endArrow=classic;html=1;rounded=0;dashed=1;entryX=0.5;entryY=1;entryDx=0;entryDy=0;" parent="1" edge="1" target="xRqy5EW2AZj9_taGgykV-7">
          <mxGeometry width="50" height="50" relative="1" as="geometry">
            <mxPoint x="530" y="550" as="sourcePoint" />
            <mxPoint x="520" y="421" as="targetPoint" />
          </mxGeometry>
        </mxCell>
        <mxCell id="ihgkQnxNwPSSJBQIqGD--89" value="Aggregates (1, 2)" style="edgeLabel;html=1;align=center;verticalAlign=middle;resizable=0;points=[];" parent="IpHL5kCFcn3_bgYXH1wa-33" vertex="1" connectable="0">
          <mxGeometry x="-0.5184" relative="1" as="geometry">
            <mxPoint x="170" y="-2" as="offset" />
          </mxGeometry>
        </mxCell>
        <mxCell id="ihgkQnxNwPSSJBQIqGD--2" value="" style="rounded=0;whiteSpace=wrap;html=1;fillColor=#d5e8d4;strokeColor=#82b366;" parent="1" vertex="1">
          <mxGeometry x="35" y="-30" width="20" height="30" as="geometry" />
        </mxCell>
        <mxCell id="ihgkQnxNwPSSJBQIqGD--4" value="Actual Implementation" style="text;html=1;align=left;verticalAlign=middle;whiteSpace=wrap;rounded=0;" parent="1" vertex="1">
          <mxGeometry x="60" y="-30" width="140" height="30" as="geometry" />
        </mxCell>
        <mxCell id="ihgkQnxNwPSSJBQIqGD--5" value="" style="endArrow=none;dashed=1;html=1;rounded=0;" parent="1" edge="1">
          <mxGeometry width="50" height="50" relative="1" as="geometry">
            <mxPoint x="135" y="709.7700000000001" as="sourcePoint" />
            <mxPoint x="200" y="710" as="targetPoint" />
          </mxGeometry>
        </mxCell>
        <mxCell id="ihgkQnxNwPSSJBQIqGD--6" value="" style="endArrow=none;dashed=1;html=1;rounded=0;" parent="1" edge="1">
          <mxGeometry width="50" height="50" relative="1" as="geometry">
            <mxPoint x="200" y="710" as="sourcePoint" />
            <mxPoint x="200" y="660" as="targetPoint" />
          </mxGeometry>
        </mxCell>
        <mxCell id="ihgkQnxNwPSSJBQIqGD--7" value="" style="endArrow=none;dashed=1;html=1;rounded=0;" parent="1" edge="1">
          <mxGeometry width="50" height="50" relative="1" as="geometry">
            <mxPoint x="135" y="850.0000000000001" as="sourcePoint" />
            <mxPoint x="200" y="850.23" as="targetPoint" />
          </mxGeometry>
        </mxCell>
        <mxCell id="ihgkQnxNwPSSJBQIqGD--8" value="" style="endArrow=none;dashed=1;html=1;rounded=0;" parent="1" edge="1">
          <mxGeometry width="50" height="50" relative="1" as="geometry">
            <mxPoint x="200" y="847.5" as="sourcePoint" />
            <mxPoint x="200" y="700" as="targetPoint" />
          </mxGeometry>
        </mxCell>
        <mxCell id="ihgkQnxNwPSSJBQIqGD--11" value="" style="endArrow=none;html=1;rounded=0;" parent="1" edge="1">
          <mxGeometry width="50" height="50" relative="1" as="geometry">
            <mxPoint x="135" y="640" as="sourcePoint" />
            <mxPoint x="230" y="640" as="targetPoint" />
          </mxGeometry>
        </mxCell>
        <mxCell id="ihgkQnxNwPSSJBQIqGD--12" value="&lt;div&gt;Producer&lt;/div&gt;&lt;div&gt;Broadcast&lt;/div&gt;" style="text;html=1;align=center;verticalAlign=middle;resizable=0;points=[];autosize=1;strokeColor=none;fillColor=none;" parent="1" vertex="1">
          <mxGeometry x="275" y="675" width="80" height="40" as="geometry" />
        </mxCell>
        <mxCell id="ihgkQnxNwPSSJBQIqGD--13" value="" style="shape=table;startSize=0;container=1;collapsible=0;childLayout=tableLayout;fontSize=16;" parent="1" vertex="1">
          <mxGeometry x="578.75" y="170" width="60" height="30" as="geometry" />
        </mxCell>
        <mxCell id="ihgkQnxNwPSSJBQIqGD--14" value="" style="shape=tableRow;horizontal=0;startSize=0;swimlaneHead=0;swimlaneBody=0;strokeColor=inherit;top=0;left=0;bottom=0;right=0;collapsible=0;dropTarget=0;fillColor=none;points=[[0,0.5],[1,0.5]];portConstraint=eastwest;fontSize=16;" parent="ihgkQnxNwPSSJBQIqGD--13" vertex="1">
          <mxGeometry width="60" height="10" as="geometry" />
        </mxCell>
        <mxCell id="ihgkQnxNwPSSJBQIqGD--15" value="" style="shape=partialRectangle;html=1;whiteSpace=wrap;connectable=0;strokeColor=inherit;overflow=hidden;fillColor=none;top=0;left=0;bottom=0;right=0;pointerEvents=1;fontSize=16;" parent="ihgkQnxNwPSSJBQIqGD--14" vertex="1">
          <mxGeometry width="20" height="10" as="geometry">
            <mxRectangle width="20" height="10" as="alternateBounds" />
          </mxGeometry>
        </mxCell>
        <mxCell id="ihgkQnxNwPSSJBQIqGD--16" value="" style="shape=partialRectangle;html=1;whiteSpace=wrap;connectable=0;strokeColor=inherit;overflow=hidden;fillColor=none;top=0;left=0;bottom=0;right=0;pointerEvents=1;fontSize=16;" parent="ihgkQnxNwPSSJBQIqGD--14" vertex="1">
          <mxGeometry x="20" width="20" height="10" as="geometry">
            <mxRectangle width="20" height="10" as="alternateBounds" />
          </mxGeometry>
        </mxCell>
        <mxCell id="ihgkQnxNwPSSJBQIqGD--17" value="" style="shape=partialRectangle;html=1;whiteSpace=wrap;connectable=0;strokeColor=inherit;overflow=hidden;fillColor=none;top=0;left=0;bottom=0;right=0;pointerEvents=1;fontSize=16;" parent="ihgkQnxNwPSSJBQIqGD--14" vertex="1">
          <mxGeometry x="40" width="20" height="10" as="geometry">
            <mxRectangle width="20" height="10" as="alternateBounds" />
          </mxGeometry>
        </mxCell>
        <mxCell id="ihgkQnxNwPSSJBQIqGD--18" value="" style="shape=tableRow;horizontal=0;startSize=0;swimlaneHead=0;swimlaneBody=0;strokeColor=inherit;top=0;left=0;bottom=0;right=0;collapsible=0;dropTarget=0;fillColor=none;points=[[0,0.5],[1,0.5]];portConstraint=eastwest;fontSize=16;" parent="ihgkQnxNwPSSJBQIqGD--13" vertex="1">
          <mxGeometry y="10" width="60" height="10" as="geometry" />
        </mxCell>
        <mxCell id="ihgkQnxNwPSSJBQIqGD--19" value="" style="shape=partialRectangle;html=1;whiteSpace=wrap;connectable=0;strokeColor=inherit;overflow=hidden;fillColor=none;top=0;left=0;bottom=0;right=0;pointerEvents=1;fontSize=16;" parent="ihgkQnxNwPSSJBQIqGD--18" vertex="1">
          <mxGeometry width="20" height="10" as="geometry">
            <mxRectangle width="20" height="10" as="alternateBounds" />
          </mxGeometry>
        </mxCell>
        <mxCell id="ihgkQnxNwPSSJBQIqGD--20" value="" style="shape=partialRectangle;html=1;whiteSpace=wrap;connectable=0;strokeColor=inherit;overflow=hidden;fillColor=none;top=0;left=0;bottom=0;right=0;pointerEvents=1;fontSize=16;" parent="ihgkQnxNwPSSJBQIqGD--18" vertex="1">
          <mxGeometry x="20" width="20" height="10" as="geometry">
            <mxRectangle width="20" height="10" as="alternateBounds" />
          </mxGeometry>
        </mxCell>
        <mxCell id="ihgkQnxNwPSSJBQIqGD--21" value="" style="shape=partialRectangle;html=1;whiteSpace=wrap;connectable=0;strokeColor=inherit;overflow=hidden;fillColor=none;top=0;left=0;bottom=0;right=0;pointerEvents=1;fontSize=16;" parent="ihgkQnxNwPSSJBQIqGD--18" vertex="1">
          <mxGeometry x="40" width="20" height="10" as="geometry">
            <mxRectangle width="20" height="10" as="alternateBounds" />
          </mxGeometry>
        </mxCell>
        <mxCell id="ihgkQnxNwPSSJBQIqGD--22" value="" style="shape=tableRow;horizontal=0;startSize=0;swimlaneHead=0;swimlaneBody=0;strokeColor=inherit;top=0;left=0;bottom=0;right=0;collapsible=0;dropTarget=0;fillColor=none;points=[[0,0.5],[1,0.5]];portConstraint=eastwest;fontSize=16;" parent="ihgkQnxNwPSSJBQIqGD--13" vertex="1">
          <mxGeometry y="20" width="60" height="10" as="geometry" />
        </mxCell>
        <mxCell id="ihgkQnxNwPSSJBQIqGD--23" value="" style="shape=partialRectangle;html=1;whiteSpace=wrap;connectable=0;strokeColor=inherit;overflow=hidden;fillColor=none;top=0;left=0;bottom=0;right=0;pointerEvents=1;fontSize=16;" parent="ihgkQnxNwPSSJBQIqGD--22" vertex="1">
          <mxGeometry width="20" height="10" as="geometry">
            <mxRectangle width="20" height="10" as="alternateBounds" />
          </mxGeometry>
        </mxCell>
        <mxCell id="ihgkQnxNwPSSJBQIqGD--24" value="" style="shape=partialRectangle;html=1;whiteSpace=wrap;connectable=0;strokeColor=inherit;overflow=hidden;fillColor=none;top=0;left=0;bottom=0;right=0;pointerEvents=1;fontSize=16;" parent="ihgkQnxNwPSSJBQIqGD--22" vertex="1">
          <mxGeometry x="20" width="20" height="10" as="geometry">
            <mxRectangle width="20" height="10" as="alternateBounds" />
          </mxGeometry>
        </mxCell>
        <mxCell id="ihgkQnxNwPSSJBQIqGD--25" value="" style="shape=partialRectangle;html=1;whiteSpace=wrap;connectable=0;strokeColor=inherit;overflow=hidden;fillColor=none;top=0;left=0;bottom=0;right=0;pointerEvents=1;fontSize=16;" parent="ihgkQnxNwPSSJBQIqGD--22" vertex="1">
          <mxGeometry x="40" width="20" height="10" as="geometry">
            <mxRectangle width="20" height="10" as="alternateBounds" />
          </mxGeometry>
        </mxCell>
        <mxCell id="ihgkQnxNwPSSJBQIqGD--26" value="&lt;font style=&quot;font-size: 8px;&quot;&gt;User Transaction&lt;/font&gt;" style="text;html=1;align=center;verticalAlign=middle;whiteSpace=wrap;rounded=0;" parent="1" vertex="1">
          <mxGeometry x="549.63" y="195" width="118.25" height="30" as="geometry" />
        </mxCell>
        <mxCell id="ihgkQnxNwPSSJBQIqGD--28" value="" style="dashed=0;outlineConnect=0;html=1;align=center;labelPosition=center;verticalLabelPosition=bottom;verticalAlign=top;shape=mxgraph.weblogos.json" parent="1" vertex="1">
          <mxGeometry x="554.5" y="226.6" width="40.5" height="40.8" as="geometry" />
        </mxCell>
        <mxCell id="ihgkQnxNwPSSJBQIqGD--32" value="" style="html=1;strokeWidth=1;shadow=0;dashed=0;shape=mxgraph.ios7.misc.text_size;fillColor=light-dark(#000000, #37a0ff);strokeColor=none;buttonText=;strokeColor2=#222222;fontColor=#222222;fontSize=8;verticalLabelPosition=bottom;verticalAlign=top;align=center;sketch=0;" parent="1" vertex="1">
          <mxGeometry x="560" y="310" width="35" height="35" as="geometry" />
        </mxCell>
        <mxCell id="ihgkQnxNwPSSJBQIqGD--29" value="" style="sketch=0;outlineConnect=0;fontColor=#232F3E;gradientColor=none;fillColor=#000000;strokeColor=none;dashed=0;verticalLabelPosition=bottom;verticalAlign=top;align=center;html=1;fontSize=12;fontStyle=0;aspect=fixed;pointerEvents=1;shape=mxgraph.aws4.container_registry_image;" parent="1" vertex="1">
          <mxGeometry x="626" y="230" width="34" height="34" as="geometry" />
        </mxCell>
        <mxCell id="ihgkQnxNwPSSJBQIqGD--33" value="" style="dashed=0;outlineConnect=0;html=1;align=center;labelPosition=center;verticalLabelPosition=bottom;verticalAlign=top;shape=mxgraph.webicons.adobe_pdf;fillColor=#F40C0C;gradientColor=#610603" parent="1" vertex="1">
          <mxGeometry x="624.9" y="310" width="35.1" height="35.6" as="geometry" />
        </mxCell>
        <mxCell id="ihgkQnxNwPSSJBQIqGD--61" value="&lt;font style=&quot;font-size: 8px;&quot;&gt;Exchange rate and Indicators&lt;/font&gt;" style="text;html=1;align=center;verticalAlign=middle;whiteSpace=wrap;rounded=0;" parent="1" vertex="1">
          <mxGeometry x="545.37" y="270" width="64.62" height="25" as="geometry" />
        </mxCell>
        <mxCell id="ihgkQnxNwPSSJBQIqGD--62" value="&lt;span style=&quot;font-size: 8px;&quot;&gt;Images&lt;/span&gt;" style="text;html=1;align=center;verticalAlign=middle;whiteSpace=wrap;rounded=0;" parent="1" vertex="1">
          <mxGeometry x="607.45" y="264" width="70.01" height="25" as="geometry" />
        </mxCell>
        <mxCell id="ihgkQnxNwPSSJBQIqGD--63" value="&lt;font style=&quot;font-size: 8px;&quot;&gt;Post and Financial News&lt;/font&gt;" style="text;html=1;align=center;verticalAlign=middle;whiteSpace=wrap;rounded=0;" parent="1" vertex="1">
          <mxGeometry x="545.19" y="350" width="64.62" height="25" as="geometry" />
        </mxCell>
        <mxCell id="ihgkQnxNwPSSJBQIqGD--64" value="" style="shape=table;startSize=0;container=1;collapsible=0;childLayout=tableLayout;fontSize=16;" parent="1" vertex="1">
          <mxGeometry x="578.75" y="385" width="60" height="30" as="geometry" />
        </mxCell>
        <mxCell id="ihgkQnxNwPSSJBQIqGD--65" value="" style="shape=tableRow;horizontal=0;startSize=0;swimlaneHead=0;swimlaneBody=0;strokeColor=inherit;top=0;left=0;bottom=0;right=0;collapsible=0;dropTarget=0;fillColor=none;points=[[0,0.5],[1,0.5]];portConstraint=eastwest;fontSize=16;" parent="ihgkQnxNwPSSJBQIqGD--64" vertex="1">
          <mxGeometry width="60" height="10" as="geometry" />
        </mxCell>
        <mxCell id="ihgkQnxNwPSSJBQIqGD--66" value="" style="shape=partialRectangle;html=1;whiteSpace=wrap;connectable=0;strokeColor=inherit;overflow=hidden;fillColor=none;top=0;left=0;bottom=0;right=0;pointerEvents=1;fontSize=16;" parent="ihgkQnxNwPSSJBQIqGD--65" vertex="1">
          <mxGeometry width="20" height="10" as="geometry">
            <mxRectangle width="20" height="10" as="alternateBounds" />
          </mxGeometry>
        </mxCell>
        <mxCell id="ihgkQnxNwPSSJBQIqGD--67" value="" style="shape=partialRectangle;html=1;whiteSpace=wrap;connectable=0;strokeColor=inherit;overflow=hidden;fillColor=none;top=0;left=0;bottom=0;right=0;pointerEvents=1;fontSize=16;" parent="ihgkQnxNwPSSJBQIqGD--65" vertex="1">
          <mxGeometry x="20" width="20" height="10" as="geometry">
            <mxRectangle width="20" height="10" as="alternateBounds" />
          </mxGeometry>
        </mxCell>
        <mxCell id="ihgkQnxNwPSSJBQIqGD--68" value="" style="shape=partialRectangle;html=1;whiteSpace=wrap;connectable=0;strokeColor=inherit;overflow=hidden;fillColor=none;top=0;left=0;bottom=0;right=0;pointerEvents=1;fontSize=16;" parent="ihgkQnxNwPSSJBQIqGD--65" vertex="1">
          <mxGeometry x="40" width="20" height="10" as="geometry">
            <mxRectangle width="20" height="10" as="alternateBounds" />
          </mxGeometry>
        </mxCell>
        <mxCell id="ihgkQnxNwPSSJBQIqGD--69" value="" style="shape=tableRow;horizontal=0;startSize=0;swimlaneHead=0;swimlaneBody=0;strokeColor=inherit;top=0;left=0;bottom=0;right=0;collapsible=0;dropTarget=0;fillColor=none;points=[[0,0.5],[1,0.5]];portConstraint=eastwest;fontSize=16;" parent="ihgkQnxNwPSSJBQIqGD--64" vertex="1">
          <mxGeometry y="10" width="60" height="10" as="geometry" />
        </mxCell>
        <mxCell id="ihgkQnxNwPSSJBQIqGD--70" value="" style="shape=partialRectangle;html=1;whiteSpace=wrap;connectable=0;strokeColor=inherit;overflow=hidden;fillColor=none;top=0;left=0;bottom=0;right=0;pointerEvents=1;fontSize=16;" parent="ihgkQnxNwPSSJBQIqGD--69" vertex="1">
          <mxGeometry width="20" height="10" as="geometry">
            <mxRectangle width="20" height="10" as="alternateBounds" />
          </mxGeometry>
        </mxCell>
        <mxCell id="ihgkQnxNwPSSJBQIqGD--71" value="" style="shape=partialRectangle;html=1;whiteSpace=wrap;connectable=0;strokeColor=inherit;overflow=hidden;fillColor=none;top=0;left=0;bottom=0;right=0;pointerEvents=1;fontSize=16;" parent="ihgkQnxNwPSSJBQIqGD--69" vertex="1">
          <mxGeometry x="20" width="20" height="10" as="geometry">
            <mxRectangle width="20" height="10" as="alternateBounds" />
          </mxGeometry>
        </mxCell>
        <mxCell id="ihgkQnxNwPSSJBQIqGD--72" value="" style="shape=partialRectangle;html=1;whiteSpace=wrap;connectable=0;strokeColor=inherit;overflow=hidden;fillColor=none;top=0;left=0;bottom=0;right=0;pointerEvents=1;fontSize=16;" parent="ihgkQnxNwPSSJBQIqGD--69" vertex="1">
          <mxGeometry x="40" width="20" height="10" as="geometry">
            <mxRectangle width="20" height="10" as="alternateBounds" />
          </mxGeometry>
        </mxCell>
        <mxCell id="ihgkQnxNwPSSJBQIqGD--73" value="" style="shape=tableRow;horizontal=0;startSize=0;swimlaneHead=0;swimlaneBody=0;strokeColor=inherit;top=0;left=0;bottom=0;right=0;collapsible=0;dropTarget=0;fillColor=none;points=[[0,0.5],[1,0.5]];portConstraint=eastwest;fontSize=16;" parent="ihgkQnxNwPSSJBQIqGD--64" vertex="1">
          <mxGeometry y="20" width="60" height="10" as="geometry" />
        </mxCell>
        <mxCell id="ihgkQnxNwPSSJBQIqGD--74" value="" style="shape=partialRectangle;html=1;whiteSpace=wrap;connectable=0;strokeColor=inherit;overflow=hidden;fillColor=none;top=0;left=0;bottom=0;right=0;pointerEvents=1;fontSize=16;" parent="ihgkQnxNwPSSJBQIqGD--73" vertex="1">
          <mxGeometry width="20" height="10" as="geometry">
            <mxRectangle width="20" height="10" as="alternateBounds" />
          </mxGeometry>
        </mxCell>
        <mxCell id="ihgkQnxNwPSSJBQIqGD--75" value="" style="shape=partialRectangle;html=1;whiteSpace=wrap;connectable=0;strokeColor=inherit;overflow=hidden;fillColor=none;top=0;left=0;bottom=0;right=0;pointerEvents=1;fontSize=16;" parent="ihgkQnxNwPSSJBQIqGD--73" vertex="1">
          <mxGeometry x="20" width="20" height="10" as="geometry">
            <mxRectangle width="20" height="10" as="alternateBounds" />
          </mxGeometry>
        </mxCell>
        <mxCell id="ihgkQnxNwPSSJBQIqGD--76" value="" style="shape=partialRectangle;html=1;whiteSpace=wrap;connectable=0;strokeColor=inherit;overflow=hidden;fillColor=none;top=0;left=0;bottom=0;right=0;pointerEvents=1;fontSize=16;" parent="ihgkQnxNwPSSJBQIqGD--73" vertex="1">
          <mxGeometry x="40" width="20" height="10" as="geometry">
            <mxRectangle width="20" height="10" as="alternateBounds" />
          </mxGeometry>
        </mxCell>
        <mxCell id="ihgkQnxNwPSSJBQIqGD--77" value="&lt;font style=&quot;font-size: 8px;&quot;&gt;Financial report and User&amp;nbsp;&lt;/font&gt;&lt;span style=&quot;font-size: 8px;&quot;&gt;document&lt;/span&gt;" style="text;html=1;align=center;verticalAlign=middle;whiteSpace=wrap;rounded=0;" parent="1" vertex="1">
          <mxGeometry x="602.91" y="350" width="80.19" height="25" as="geometry" />
        </mxCell>
        <mxCell id="ihgkQnxNwPSSJBQIqGD--78" value="&lt;font style=&quot;font-size: 8px;&quot;&gt;Streaming aggregates&lt;/font&gt;" style="text;html=1;align=center;verticalAlign=middle;whiteSpace=wrap;rounded=0;" parent="1" vertex="1">
          <mxGeometry x="549.62" y="415" width="118.25" height="30" as="geometry" />
        </mxCell>
        <mxCell id="ihgkQnxNwPSSJBQIqGD--80" value="" style="endArrow=none;html=1;rounded=0;entryX=0;entryY=0.18;entryDx=0;entryDy=0;entryPerimeter=0;" parent="1" target="rmjqJcoGJ74MZayaY6CU-69" edge="1">
          <mxGeometry width="50" height="50" relative="1" as="geometry">
            <mxPoint x="638.75" y="187.07999999999998" as="sourcePoint" />
            <mxPoint x="733.75" y="187.07999999999998" as="targetPoint" />
          </mxGeometry>
        </mxCell>
        <mxCell id="ihgkQnxNwPSSJBQIqGD--81" value="" style="endArrow=none;html=1;rounded=0;" parent="1" edge="1">
          <mxGeometry width="50" height="50" relative="1" as="geometry">
            <mxPoint x="660" y="244.48999999999998" as="sourcePoint" />
            <mxPoint x="800" y="244.41" as="targetPoint" />
          </mxGeometry>
        </mxCell>
        <mxCell id="ihgkQnxNwPSSJBQIqGD--82" value="" style="endArrow=none;html=1;rounded=0;entryX=0.101;entryY=0.176;entryDx=0;entryDy=0;entryPerimeter=0;" parent="1" edge="1">
          <mxGeometry width="50" height="50" relative="1" as="geometry">
            <mxPoint x="660" y="327" as="sourcePoint" />
            <mxPoint x="800.25" y="327.02" as="targetPoint" />
          </mxGeometry>
        </mxCell>
        <mxCell id="ihgkQnxNwPSSJBQIqGD--83" value="" style="endArrow=none;html=1;rounded=0;entryX=0.101;entryY=0.176;entryDx=0;entryDy=0;entryPerimeter=0;exitX=1;exitY=0.5;exitDx=0;exitDy=0;" parent="1" source="ihgkQnxNwPSSJBQIqGD--69" edge="1">
          <mxGeometry width="50" height="50" relative="1" as="geometry">
            <mxPoint x="660" y="399.52" as="sourcePoint" />
            <mxPoint x="800.25" y="399.53999999999996" as="targetPoint" />
          </mxGeometry>
        </mxCell>
        <mxCell id="ihgkQnxNwPSSJBQIqGD--85" value="" style="endArrow=none;html=1;rounded=0;" parent="1" source="ihgkQnxNwPSSJBQIqGD--28" target="ihgkQnxNwPSSJBQIqGD--29" edge="1">
          <mxGeometry width="50" height="50" relative="1" as="geometry">
            <mxPoint x="595" y="244.48999999999998" as="sourcePoint" />
            <mxPoint x="735" y="244.41" as="targetPoint" />
          </mxGeometry>
        </mxCell>
        <mxCell id="ihgkQnxNwPSSJBQIqGD--86" value="" style="endArrow=none;html=1;rounded=0;" parent="1" edge="1">
          <mxGeometry width="50" height="50" relative="1" as="geometry">
            <mxPoint x="595" y="327.59000000000003" as="sourcePoint" />
            <mxPoint x="626" y="327.59000000000003" as="targetPoint" />
          </mxGeometry>
        </mxCell>
        <mxCell id="xRqy5EW2AZj9_taGgykV-1" value="5: User Profiles" style="rounded=0;whiteSpace=wrap;html=1;fillColor=#d5e8d4;strokeColor=#82b366;" vertex="1" parent="1">
          <mxGeometry x="35" y="315" width="100" height="30" as="geometry" />
        </mxCell>
        <mxCell id="xRqy5EW2AZj9_taGgykV-7" value="" style="shape=image;verticalLabelPosition=bottom;labelBackgroundColor=default;verticalAlign=top;aspect=fixed;imageAspect=0;image=https://seeklogo.com/images/S/spark-logo-ED2EE326E9-seeklogo.com.png;" vertex="1" parent="1">
          <mxGeometry x="504.5" y="445" width="50" height="50" as="geometry" />
        </mxCell>
        <mxCell id="xRqy5EW2AZj9_taGgykV-12" value="" style="rounded=1;whiteSpace=wrap;html=1;absoluteArcSize=1;arcSize=14;strokeWidth=2;" vertex="1" parent="1">
          <mxGeometry x="1080" y="62.63" width="180" height="697.37" as="geometry" />
        </mxCell>
        <mxCell id="xRqy5EW2AZj9_taGgykV-13" value="possibly implementing" style="text;html=1;align=center;verticalAlign=middle;whiteSpace=wrap;rounded=0;" vertex="1" parent="1">
          <mxGeometry x="1120" y="62.629999999999995" width="100" height="30" as="geometry" />
        </mxCell>
        <mxCell id="xRqy5EW2AZj9_taGgykV-14" value="" style="shape=partialRectangle;whiteSpace=wrap;html=1;right=0;top=0;bottom=0;fillColor=none;routingCenterX=-0.5;rotation=90;" vertex="1" parent="1">
          <mxGeometry x="1161.25" y="11.379999999999995" width="15" height="180" as="geometry" />
        </mxCell>
        <mxCell id="xRqy5EW2AZj9_taGgykV-15" value="User Verification (kyc)" style="text;html=1;align=center;verticalAlign=middle;whiteSpace=wrap;rounded=0;" vertex="1" parent="1">
          <mxGeometry x="1108.74" y="675" width="120.02" height="30" as="geometry" />
        </mxCell>
        <mxCell id="xRqy5EW2AZj9_taGgykV-19" value="Automated&amp;nbsp;&lt;div&gt;Trading AI&lt;/div&gt;" style="text;html=1;align=center;verticalAlign=middle;resizable=0;points=[];autosize=1;strokeColor=none;fillColor=none;" vertex="1" parent="1">
          <mxGeometry x="1128.75" y="117.36999999999999" width="80" height="40" as="geometry" />
        </mxCell>
        <mxCell id="xRqy5EW2AZj9_taGgykV-21" value="User clustrering for&amp;nbsp;&lt;div&gt;targeted marketing&lt;/div&gt;" style="text;html=1;align=center;verticalAlign=middle;resizable=0;points=[];autosize=1;strokeColor=none;fillColor=none;" vertex="1" parent="1">
          <mxGeometry x="1103.75" y="310" width="130" height="40" as="geometry" />
        </mxCell>
        <mxCell id="xRqy5EW2AZj9_taGgykV-22" value="Country risk profiling and clustering &#xa;&amp; Macroeconomic trend analysis" style="text;whiteSpace=wrap;align=center;" vertex="1" parent="1">
          <mxGeometry x="1085" y="165" width="170" height="30" as="geometry" />
        </mxCell>
        <mxCell id="xRqy5EW2AZj9_taGgykV-23" value="Anti money Laundering" style="text;html=1;align=center;verticalAlign=middle;resizable=0;points=[];autosize=1;strokeColor=none;fillColor=none;" vertex="1" parent="1">
          <mxGeometry x="1093.75" y="360" width="150" height="30" as="geometry" />
        </mxCell>
        <mxCell id="xRqy5EW2AZj9_taGgykV-25" value="" style="rounded=1;whiteSpace=wrap;html=1;absoluteArcSize=1;arcSize=14;strokeWidth=2;" vertex="1" parent="1">
          <mxGeometry x="1310" y="60" width="180" height="700" as="geometry" />
        </mxCell>
        <mxCell id="xRqy5EW2AZj9_taGgykV-26" value="more Ideas" style="text;html=1;align=center;verticalAlign=middle;whiteSpace=wrap;rounded=0;" vertex="1" parent="1">
          <mxGeometry x="1350" y="59.99999999999999" width="100" height="30" as="geometry" />
        </mxCell>
        <mxCell id="xRqy5EW2AZj9_taGgykV-27" value="" style="shape=partialRectangle;whiteSpace=wrap;html=1;right=0;top=0;bottom=0;fillColor=none;routingCenterX=-0.5;rotation=90;" vertex="1" parent="1">
          <mxGeometry x="1391.25" y="8.749999999999996" width="15" height="180" as="geometry" />
        </mxCell>
        <mxCell id="xRqy5EW2AZj9_taGgykV-28" value="Loan Approval" style="text;html=1;align=center;verticalAlign=middle;whiteSpace=wrap;rounded=0;" vertex="1" parent="1">
          <mxGeometry x="1345" y="117.37" width="110" height="30" as="geometry" />
        </mxCell>
        <mxCell id="xRqy5EW2AZj9_taGgykV-29" value="Social sentiment analysis for &#xa;market trends (NLP models)" style="text;whiteSpace=wrap;align=center;" vertex="1" parent="1">
          <mxGeometry x="1327.51" y="162.37" width="144.98" height="40" as="geometry" />
        </mxCell>
        <mxCell id="xRqy5EW2AZj9_taGgykV-30" value="Risk managment&lt;div&gt;scenario analysis&lt;/div&gt;" style="text;html=1;align=center;verticalAlign=middle;resizable=0;points=[];autosize=1;strokeColor=none;fillColor=none;" vertex="1" parent="1">
          <mxGeometry x="1338.74" y="495" width="120" height="40" as="geometry" />
        </mxCell>
        <mxCell id="xRqy5EW2AZj9_taGgykV-31" value="Evaluate Support&amp;nbsp;&lt;div&gt;Quality&lt;/div&gt;" style="text;html=1;align=center;verticalAlign=middle;resizable=0;points=[];autosize=1;strokeColor=none;fillColor=none;" vertex="1" parent="1">
          <mxGeometry x="1338.75" y="252.37" width="120" height="40" as="geometry" />
        </mxCell>
        <mxCell id="xRqy5EW2AZj9_taGgykV-32" value="AI Assistant as first-conatct in support&amp;nbsp;" style="text;html=1;align=center;verticalAlign=middle;whiteSpace=wrap;rounded=0;" vertex="1" parent="1">
          <mxGeometry x="1341.24" y="305.17" width="115.01" height="50" as="geometry" />
        </mxCell>
        <mxCell id="xRqy5EW2AZj9_taGgykV-33" value="Identify Pain Points&lt;div&gt;and Oportunities&lt;/div&gt;" style="text;html=1;align=center;verticalAlign=middle;resizable=0;points=[];autosize=1;strokeColor=none;fillColor=none;" vertex="1" parent="1">
          <mxGeometry x="1335" y="372.37" width="130" height="40" as="geometry" />
        </mxCell>
        <mxCell id="xRqy5EW2AZj9_taGgykV-34" value="AI Assistant as first-conatct in support&amp;nbsp;" style="text;html=1;align=center;verticalAlign=middle;whiteSpace=wrap;rounded=0;" vertex="1" parent="1">
          <mxGeometry x="1341.24" y="432.37" width="115.01" height="50" as="geometry" />
        </mxCell>
        <mxCell id="xRqy5EW2AZj9_taGgykV-36" value="" style="endArrow=none;dashed=1;html=1;rounded=0;" edge="1" parent="1">
          <mxGeometry width="50" height="50" relative="1" as="geometry">
            <mxPoint x="135" y="100.07000000000005" as="sourcePoint" />
            <mxPoint x="200" y="100" as="targetPoint" />
          </mxGeometry>
        </mxCell>
        <mxCell id="xRqy5EW2AZj9_taGgykV-37" value="" style="endArrow=none;dashed=1;html=1;rounded=0;" edge="1" parent="1">
          <mxGeometry width="50" height="50" relative="1" as="geometry">
            <mxPoint x="135" y="246.45000000000005" as="sourcePoint" />
            <mxPoint x="200" y="246.38" as="targetPoint" />
          </mxGeometry>
        </mxCell>
        <mxCell id="xRqy5EW2AZj9_taGgykV-38" value="" style="endArrow=none;html=1;rounded=0;" edge="1" parent="1">
          <mxGeometry width="50" height="50" relative="1" as="geometry">
            <mxPoint x="135" y="329.5" as="sourcePoint" />
            <mxPoint x="230" y="329.5" as="targetPoint" />
          </mxGeometry>
        </mxCell>
        <mxCell id="xRqy5EW2AZj9_taGgykV-39" value="" style="endArrow=none;html=1;rounded=0;" edge="1" parent="1">
          <mxGeometry width="50" height="50" relative="1" as="geometry">
            <mxPoint x="135" y="259.5" as="sourcePoint" />
            <mxPoint x="230" y="259.5" as="targetPoint" />
          </mxGeometry>
        </mxCell>
        <mxCell id="xRqy5EW2AZj9_taGgykV-40" value="6: Social Media Posts" style="rounded=0;whiteSpace=wrap;html=1;fillColor=#d5e8d4;strokeColor=#82b366;" vertex="1" parent="1">
          <mxGeometry x="35" y="385" width="100" height="30" as="geometry" />
        </mxCell>
        <mxCell id="xRqy5EW2AZj9_taGgykV-41" value="" style="endArrow=none;html=1;rounded=0;" edge="1" parent="1">
          <mxGeometry width="50" height="50" relative="1" as="geometry">
            <mxPoint x="135" y="399.5" as="sourcePoint" />
            <mxPoint x="230" y="399.5" as="targetPoint" />
          </mxGeometry>
        </mxCell>
        <mxCell id="xRqy5EW2AZj9_taGgykV-42" value="Real time Automated trading" style="text;html=1;align=center;verticalAlign=middle;resizable=0;points=[];autosize=1;strokeColor=none;fillColor=none;" vertex="1" parent="1">
          <mxGeometry x="1083.75" y="625" width="170" height="30" as="geometry" />
        </mxCell>
        <mxCell id="xRqy5EW2AZj9_taGgykV-44" value="Real time stock/crypto &lt;br&gt;Recomendations" style="text;html=1;align=center;verticalAlign=middle;resizable=0;points=[];autosize=1;strokeColor=none;fillColor=none;" vertex="1" parent="1">
          <mxGeometry x="1100" y="575" width="140" height="40" as="geometry" />
        </mxCell>
        <mxCell id="xRqy5EW2AZj9_taGgykV-45" value="Real-time Fraud and&amp;nbsp;&lt;div&gt;Bot Detection&lt;/div&gt;" style="text;html=1;align=center;verticalAlign=middle;whiteSpace=wrap;rounded=0;" vertex="1" parent="1">
          <mxGeometry x="1082.51" y="520" width="174.99" height="30" as="geometry" />
        </mxCell>
        <mxCell id="xRqy5EW2AZj9_taGgykV-46" value="" style="endArrow=none;dashed=1;html=1;rounded=0;fillColor=#d80073;strokeColor=#FF9933;exitX=0.968;exitY=0.445;exitDx=0;exitDy=0;exitPerimeter=0;" edge="1" parent="1" source="rmjqJcoGJ74MZayaY6CU-42">
          <mxGeometry width="50" height="50" relative="1" as="geometry">
            <mxPoint x="775.58" y="863.25" as="sourcePoint" />
            <mxPoint x="1100" y="690" as="targetPoint" />
          </mxGeometry>
        </mxCell>
        <mxCell id="xRqy5EW2AZj9_taGgykV-47" value="Warm path (8)" style="edgeLabel;html=1;align=center;verticalAlign=middle;resizable=0;points=[];" vertex="1" connectable="0" parent="xRqy5EW2AZj9_taGgykV-46">
          <mxGeometry x="-0.0319" y="3" relative="1" as="geometry">
            <mxPoint x="-16" y="-5" as="offset" />
          </mxGeometry>
        </mxCell>
        <mxCell id="xRqy5EW2AZj9_taGgykV-48" value="" style="endArrow=none;dashed=1;html=1;rounded=0;fillColor=#d80073;strokeColor=#A50040;entryX=0.1;entryY=0.667;entryDx=0;entryDy=0;entryPerimeter=0;" edge="1" parent="1" target="xRqy5EW2AZj9_taGgykV-45">
          <mxGeometry width="50" height="50" relative="1" as="geometry">
            <mxPoint x="960" y="650" as="sourcePoint" />
            <mxPoint x="1100" y="850" as="targetPoint" />
            <Array as="points">
              <mxPoint x="960" y="640" />
              <mxPoint x="960" y="540" />
            </Array>
          </mxGeometry>
        </mxCell>
        <mxCell id="xRqy5EW2AZj9_taGgykV-49" value="Hot paths (4, 8, 9)" style="edgeLabel;html=1;align=center;verticalAlign=middle;resizable=0;points=[];" vertex="1" connectable="0" parent="xRqy5EW2AZj9_taGgykV-48">
          <mxGeometry x="-0.5991" y="5" relative="1" as="geometry">
            <mxPoint x="55" y="-70" as="offset" />
          </mxGeometry>
        </mxCell>
        <mxCell id="xRqy5EW2AZj9_taGgykV-50" value="" style="endArrow=none;dashed=1;html=1;rounded=0;fillColor=#d80073;strokeColor=#A50040;exitX=1;exitY=0;exitDx=0;exitDy=0;exitPerimeter=0;" edge="1" parent="1" source="rmjqJcoGJ74MZayaY6CU-42">
          <mxGeometry width="50" height="50" relative="1" as="geometry">
            <mxPoint x="970" y="660" as="sourcePoint" />
            <mxPoint x="1110" y="600" as="targetPoint" />
            <Array as="points">
              <mxPoint x="990" y="600" />
              <mxPoint x="1110" y="600" />
            </Array>
          </mxGeometry>
        </mxCell>
        <mxCell id="xRqy5EW2AZj9_taGgykV-51" value="Hot paths (1, 2)" style="edgeLabel;html=1;align=center;verticalAlign=middle;resizable=0;points=[];" vertex="1" connectable="0" parent="xRqy5EW2AZj9_taGgykV-50">
          <mxGeometry x="-0.5991" y="5" relative="1" as="geometry">
            <mxPoint x="45" y="-23" as="offset" />
          </mxGeometry>
        </mxCell>
        <mxCell id="xRqy5EW2AZj9_taGgykV-52" value="Face/ID recognition&lt;div&gt;system&lt;/div&gt;" style="text;html=1;align=center;verticalAlign=middle;resizable=0;points=[];autosize=1;strokeColor=none;fillColor=none;" vertex="1" parent="1">
          <mxGeometry x="1105" y="249" width="130" height="40" as="geometry" />
        </mxCell>
        <mxCell id="xRqy5EW2AZj9_taGgykV-53" value="" style="endArrow=none;html=1;rounded=0;" edge="1" parent="1">
          <mxGeometry width="50" height="50" relative="1" as="geometry">
            <mxPoint x="986.24" y="263" as="sourcePoint" />
            <mxPoint x="1108.74" y="263.88" as="targetPoint" />
            <Array as="points">
              <mxPoint x="1046.24" y="264" />
            </Array>
          </mxGeometry>
        </mxCell>
        <mxCell id="xRqy5EW2AZj9_taGgykV-54" value="8" style="text;html=1;align=center;verticalAlign=middle;resizable=0;points=[];autosize=1;strokeColor=none;fillColor=none;" vertex="1" parent="1">
          <mxGeometry x="1015" y="237.4" width="30" height="30" as="geometry" />
        </mxCell>
        <mxCell id="xRqy5EW2AZj9_taGgykV-55" value="" style="endArrow=none;html=1;rounded=0;exitX=1.005;exitY=0.183;exitDx=0;exitDy=0;exitPerimeter=0;" edge="1" parent="1" source="rmjqJcoGJ74MZayaY6CU-69">
          <mxGeometry width="50" height="50" relative="1" as="geometry">
            <mxPoint x="981.25" y="187.75" as="sourcePoint" />
            <mxPoint x="1103.75" y="188.63" as="targetPoint" />
          </mxGeometry>
        </mxCell>
        <mxCell id="xRqy5EW2AZj9_taGgykV-57" value="" style="endArrow=none;html=1;rounded=0;" edge="1" parent="1">
          <mxGeometry width="50" height="50" relative="1" as="geometry">
            <mxPoint x="990" y="136.87" as="sourcePoint" />
            <mxPoint x="1112.5" y="137.75" as="targetPoint" />
          </mxGeometry>
        </mxCell>
        <mxCell id="xRqy5EW2AZj9_taGgykV-58" value="1, 2, 3, 6" style="text;html=1;align=center;verticalAlign=middle;resizable=0;points=[];autosize=1;strokeColor=none;fillColor=none;" vertex="1" parent="1">
          <mxGeometry x="1000" y="110" width="70" height="30" as="geometry" />
        </mxCell>
        <mxCell id="xRqy5EW2AZj9_taGgykV-60" value="3" style="text;html=1;align=center;verticalAlign=middle;resizable=0;points=[];autosize=1;strokeColor=none;fillColor=none;" vertex="1" parent="1">
          <mxGeometry x="1015" y="162.37" width="30" height="30" as="geometry" />
        </mxCell>
        <mxCell id="xRqy5EW2AZj9_taGgykV-61" value="" style="endArrow=none;html=1;rounded=0;" edge="1" parent="1">
          <mxGeometry width="50" height="50" relative="1" as="geometry">
            <mxPoint x="986.24" y="327" as="sourcePoint" />
            <mxPoint x="1108.74" y="327.88" as="targetPoint" />
            <Array as="points">
              <mxPoint x="1046.24" y="328" />
            </Array>
          </mxGeometry>
        </mxCell>
        <mxCell id="xRqy5EW2AZj9_taGgykV-62" value="" style="endArrow=none;html=1;rounded=0;" edge="1" parent="1">
          <mxGeometry width="50" height="50" relative="1" as="geometry">
            <mxPoint x="990" y="374" as="sourcePoint" />
            <mxPoint x="1100" y="375" as="targetPoint" />
            <Array as="points">
              <mxPoint x="1050" y="375" />
            </Array>
          </mxGeometry>
        </mxCell>
        <mxCell id="xRqy5EW2AZj9_taGgykV-63" value="4, 9" style="text;html=1;align=center;verticalAlign=middle;resizable=0;points=[];autosize=1;strokeColor=none;fillColor=none;" vertex="1" parent="1">
          <mxGeometry x="1010" y="350" width="40" height="30" as="geometry" />
        </mxCell>
        <mxCell id="xRqy5EW2AZj9_taGgykV-64" value="5" style="text;html=1;align=center;verticalAlign=middle;resizable=0;points=[];autosize=1;strokeColor=none;fillColor=none;" vertex="1" parent="1">
          <mxGeometry x="1015" y="301.38" width="30" height="30" as="geometry" />
        </mxCell>
        <mxCell id="xRqy5EW2AZj9_taGgykV-65" value="USED BY:" style="text;html=1;align=center;verticalAlign=middle;resizable=0;points=[];autosize=1;strokeColor=none;fillColor=none;" vertex="1" parent="1">
          <mxGeometry x="1130.01" y="442.37" width="80" height="30" as="geometry" />
        </mxCell>
        <mxCell id="xRqy5EW2AZj9_taGgykV-67" value="Websocket" style="text;html=1;align=center;verticalAlign=middle;resizable=0;points=[];autosize=1;strokeColor=none;fillColor=none;" vertex="1" parent="1">
          <mxGeometry x="124.99999999999997" y="80" width="80" height="30" as="geometry" />
        </mxCell>
      </root>
    </mxGraphModel>
  </diagram>
</mxfile>
